<mxfile host="app.diagrams.net" modified="2021-08-04T08:01:23.126Z" agent="5.0 (Windows)" etag="RAkOjgpNRYCsJfpUgwAW" version="14.9.0" type="github">
  <diagram id="53IQXVl9icCSp_Kw3Ib1" name="Page-1">
    <mxGraphModel dx="1422" dy="883" grid="1" gridSize="10" guides="1" tooltips="1" connect="1" arrows="1" fold="1" page="1" pageScale="1" pageWidth="1169" pageHeight="827" math="0" shadow="0" extFonts="Roboto^https://fonts.googleapis.com/css?family=Roboto">
      <root>
        <mxCell id="0" />
        <mxCell id="1" parent="0" />
        <mxCell id="L9tT5u5rNDzpHPTkdOCP-2" value="" style="rounded=0;whiteSpace=wrap;html=1;gradientColor=none;strokeColor=#DEDEDE;fillColor=#FAFAFA;" parent="1" vertex="1">
          <mxGeometry x="40" y="60" width="1260" height="440" as="geometry" />
        </mxCell>
        <mxCell id="uWUnNED6HEl2aK5fdaIb-92" value="" style="endArrow=none;html=1;strokeWidth=3;fontFamily=Courier New;fontColor=#009900;endFill=0;dashed=1;strokeColor=#DEDEDE;" parent="1" edge="1">
          <mxGeometry width="50" height="50" relative="1" as="geometry">
            <mxPoint x="260" y="121" as="sourcePoint" />
            <mxPoint x="1080" y="121" as="targetPoint" />
          </mxGeometry>
        </mxCell>
        <mxCell id="uWUnNED6HEl2aK5fdaIb-93" value="" style="endArrow=none;html=1;strokeWidth=3;fontFamily=Courier New;fontColor=#009900;endFill=0;dashed=1;strokeColor=#DEDEDE;" parent="1" edge="1">
          <mxGeometry width="50" height="50" relative="1" as="geometry">
            <mxPoint x="260" y="201" as="sourcePoint" />
            <mxPoint x="1080" y="200" as="targetPoint" />
          </mxGeometry>
        </mxCell>
        <mxCell id="uWUnNED6HEl2aK5fdaIb-91" value="" style="endArrow=none;html=1;strokeWidth=3;fontFamily=Courier New;fontColor=#009900;dashed=1;endFill=0;strokeColor=#DEDEDE;" parent="1" edge="1">
          <mxGeometry width="50" height="50" relative="1" as="geometry">
            <mxPoint x="260" y="360" as="sourcePoint" />
            <mxPoint x="1060" y="360" as="targetPoint" />
          </mxGeometry>
        </mxCell>
        <mxCell id="uWUnNED6HEl2aK5fdaIb-8" value="" style="edgeStyle=orthogonalEdgeStyle;rounded=0;html=1;jettySize=auto;orthogonalLoop=1;plain-blue;endArrow=none;endFill=0;strokeWidth=4;entryX=0;entryY=0.5;entryDx=0;entryDy=0;entryPerimeter=0;strokeColor=#404040;" parent="1" source="uWUnNED6HEl2aK5fdaIb-10" target="9hBKPDzoitwpIBdzFDQ7-16" edge="1">
          <mxGeometry x="352.12" y="291" as="geometry">
            <mxPoint x="502.12" y="291" as="targetPoint" />
          </mxGeometry>
        </mxCell>
        <mxCell id="uWUnNED6HEl2aK5fdaIb-9" style="edgeStyle=orthogonalEdgeStyle;html=1;exitX=1;exitY=0.5;exitPerimeter=0;entryX=0;entryY=0.5;entryPerimeter=0;endArrow=none;endFill=0;jettySize=auto;orthogonalLoop=1;strokeWidth=4;fontSize=15;curved=1;strokeColor=#404040;" parent="1" source="uWUnNED6HEl2aK5fdaIb-10" target="uWUnNED6HEl2aK5fdaIb-15" edge="1">
          <mxGeometry relative="1" as="geometry" />
        </mxCell>
        <mxCell id="uWUnNED6HEl2aK5fdaIb-10" value="" style="verticalLabelPosition=bottom;verticalAlign=top;html=1;strokeWidth=4;shape=mxgraph.flowchart.on-page_reference;plain-blue;gradientColor=none;fillColor=#69C0E0;strokeColor=#404040;" parent="1" vertex="1">
          <mxGeometry x="325.12" y="265" width="30" height="30" as="geometry" />
        </mxCell>
        <mxCell id="9IzYRtWV6OqHCAsyrj7a-34" style="edgeStyle=orthogonalEdgeStyle;curved=1;orthogonalLoop=1;jettySize=auto;html=1;entryX=0;entryY=0.5;entryDx=0;entryDy=0;entryPerimeter=0;endArrow=none;endFill=0;strokeWidth=4;fontFamily=Helvetica;strokeColor=#404040;" parent="1" source="uWUnNED6HEl2aK5fdaIb-11" target="9IzYRtWV6OqHCAsyrj7a-33" edge="1">
          <mxGeometry relative="1" as="geometry" />
        </mxCell>
        <mxCell id="uWUnNED6HEl2aK5fdaIb-11" value="" style="verticalLabelPosition=bottom;verticalAlign=top;html=1;strokeWidth=4;shape=mxgraph.flowchart.on-page_reference;plain-blue;gradientColor=none;fillColor=#69C0E0;strokeColor=#404040;" parent="1" vertex="1">
          <mxGeometry x="1035" y="265" width="30" height="30" as="geometry" />
        </mxCell>
        <mxCell id="uWUnNED6HEl2aK5fdaIb-12" value="" style="edgeStyle=orthogonalEdgeStyle;rounded=0;html=1;jettySize=auto;orthogonalLoop=1;strokeWidth=4;endArrow=none;endFill=0;strokeColor=#404040;" parent="1" target="uWUnNED6HEl2aK5fdaIb-10" edge="1">
          <mxGeometry x="252.12" y="291" as="geometry">
            <mxPoint x="260" y="280" as="sourcePoint" />
          </mxGeometry>
        </mxCell>
        <mxCell id="9IzYRtWV6OqHCAsyrj7a-1" style="edgeStyle=orthogonalEdgeStyle;orthogonalLoop=1;jettySize=auto;html=1;entryX=0;entryY=0.5;entryDx=0;entryDy=0;entryPerimeter=0;strokeWidth=4;endArrow=none;endFill=0;curved=1;strokeColor=#404040;" parent="1" source="uWUnNED6HEl2aK5fdaIb-15" target="9hBKPDzoitwpIBdzFDQ7-16" edge="1">
          <mxGeometry relative="1" as="geometry" />
        </mxCell>
        <mxCell id="uWUnNED6HEl2aK5fdaIb-15" value="" style="verticalLabelPosition=bottom;verticalAlign=top;html=1;strokeWidth=4;shape=mxgraph.flowchart.on-page_reference;plain-purple;gradientColor=none;fillColor=#FFD966;strokeColor=#404040;" parent="1" vertex="1">
          <mxGeometry x="404.87" y="186" width="30" height="30" as="geometry" />
        </mxCell>
        <mxCell id="9IzYRtWV6OqHCAsyrj7a-4" style="edgeStyle=orthogonalEdgeStyle;orthogonalLoop=1;jettySize=auto;html=1;entryX=0;entryY=0.5;entryDx=0;entryDy=0;entryPerimeter=0;endArrow=none;endFill=0;strokeWidth=4;curved=1;strokeColor=#404040;" parent="1" source="uWUnNED6HEl2aK5fdaIb-69" target="uWUnNED6HEl2aK5fdaIb-11" edge="1">
          <mxGeometry relative="1" as="geometry" />
        </mxCell>
        <mxCell id="uWUnNED6HEl2aK5fdaIb-69" value="" style="verticalLabelPosition=bottom;verticalAlign=top;html=1;strokeWidth=4;shape=mxgraph.flowchart.on-page_reference;plain-purple;gradientColor=none;strokeColor=#404040;fillColor=#FFAD5C;" parent="1" vertex="1">
          <mxGeometry x="955" y="106" width="30" height="30" as="geometry" />
        </mxCell>
        <mxCell id="uWUnNED6HEl2aK5fdaIb-103" value="1.0.0" style="text;html=1;align=center;verticalAlign=middle;whiteSpace=wrap;overflow=hidden;fontSize=14;fontFamily=Roboto;rounded=1;strokeColor=#404040;fontColor=#404040;strokeWidth=2;fillColor=#E6E6E6;" parent="1" vertex="1">
          <mxGeometry x="308.62" y="304" width="63" height="22" as="geometry" />
        </mxCell>
        <mxCell id="9hBKPDzoitwpIBdzFDQ7-21" value="" style="edgeStyle=orthogonalEdgeStyle;rounded=0;orthogonalLoop=1;jettySize=auto;html=1;fontSize=15;endArrow=none;endFill=0;strokeWidth=4;entryX=0;entryY=0.5;entryDx=0;entryDy=0;entryPerimeter=0;strokeColor=#404040;" parent="1" source="9IzYRtWV6OqHCAsyrj7a-21" target="uWUnNED6HEl2aK5fdaIb-11" edge="1">
          <mxGeometry relative="1" as="geometry">
            <mxPoint x="930.12" y="291" as="targetPoint" />
          </mxGeometry>
        </mxCell>
        <mxCell id="9IzYRtWV6OqHCAsyrj7a-27" style="edgeStyle=orthogonalEdgeStyle;orthogonalLoop=1;jettySize=auto;html=1;entryX=0;entryY=0.5;entryDx=0;entryDy=0;entryPerimeter=0;endArrow=none;endFill=0;strokeWidth=4;curved=1;strokeColor=#404040;" parent="1" source="9hBKPDzoitwpIBdzFDQ7-16" target="9IzYRtWV6OqHCAsyrj7a-25" edge="1">
          <mxGeometry relative="1" as="geometry">
            <Array as="points">
              <mxPoint x="550" y="280" />
              <mxPoint x="550" y="360" />
            </Array>
          </mxGeometry>
        </mxCell>
        <mxCell id="9hBKPDzoitwpIBdzFDQ7-16" value="" style="verticalLabelPosition=bottom;verticalAlign=top;html=1;strokeWidth=4;shape=mxgraph.flowchart.on-page_reference;plain-blue;gradientColor=none;fillColor=#69C0E0;strokeColor=#404040;" parent="1" vertex="1">
          <mxGeometry x="487.12" y="265" width="30" height="30" as="geometry" />
        </mxCell>
        <mxCell id="9IzYRtWV6OqHCAsyrj7a-2" value="1.1.0" style="text;html=1;align=center;verticalAlign=middle;whiteSpace=wrap;overflow=hidden;fontSize=14;fontFamily=Roboto;rounded=1;fontColor=#404040;strokeColor=#404040;strokeWidth=2;fillColor=#E6E6E6;" parent="1" vertex="1">
          <mxGeometry x="470.62" y="304" width="63" height="22" as="geometry" />
        </mxCell>
        <mxCell id="9IzYRtWV6OqHCAsyrj7a-5" value="2.0.0" style="text;html=1;align=center;verticalAlign=middle;whiteSpace=wrap;overflow=hidden;fontSize=14;fontFamily=Roboto;rounded=1;fontColor=#404040;strokeColor=#404040;strokeWidth=2;fillColor=#E6E6E6;" parent="1" vertex="1">
          <mxGeometry x="910" y="304" width="63" height="22" as="geometry" />
        </mxCell>
        <mxCell id="9IzYRtWV6OqHCAsyrj7a-9" value="" style="endArrow=none;html=1;strokeWidth=3;fontFamily=Courier New;fontColor=#009900;dashed=1;endFill=0;strokeColor=#DEDEDE;" parent="1" edge="1">
          <mxGeometry width="50" height="50" relative="1" as="geometry">
            <mxPoint x="260" y="440" as="sourcePoint" />
            <mxPoint x="1080" y="440" as="targetPoint" />
          </mxGeometry>
        </mxCell>
        <mxCell id="9IzYRtWV6OqHCAsyrj7a-26" style="edgeStyle=orthogonalEdgeStyle;orthogonalLoop=1;jettySize=auto;html=1;entryX=0;entryY=0.5;entryDx=0;entryDy=0;entryPerimeter=0;endArrow=none;endFill=0;strokeWidth=4;curved=1;strokeColor=#404040;" parent="1" source="9IzYRtWV6OqHCAsyrj7a-21" target="uWUnNED6HEl2aK5fdaIb-69" edge="1">
          <mxGeometry relative="1" as="geometry">
            <Array as="points">
              <mxPoint x="930" y="280" />
              <mxPoint x="930" y="121" />
            </Array>
          </mxGeometry>
        </mxCell>
        <mxCell id="9IzYRtWV6OqHCAsyrj7a-21" value="" style="verticalLabelPosition=bottom;verticalAlign=top;html=1;strokeWidth=1;shape=mxgraph.flowchart.on-page_reference;plain-blue;gradientColor=none;fillColor=#404040;strokeColor=#404040;" parent="1" vertex="1">
          <mxGeometry x="885" y="275" width="10" height="10" as="geometry" />
        </mxCell>
        <mxCell id="9IzYRtWV6OqHCAsyrj7a-24" value="" style="edgeStyle=orthogonalEdgeStyle;rounded=0;orthogonalLoop=1;jettySize=auto;html=1;fontSize=15;endArrow=none;endFill=0;strokeWidth=4;entryX=0;entryY=0.5;entryDx=0;entryDy=0;entryPerimeter=0;strokeColor=#404040;" parent="1" source="9hBKPDzoitwpIBdzFDQ7-16" target="9IzYRtWV6OqHCAsyrj7a-21" edge="1">
          <mxGeometry relative="1" as="geometry">
            <mxPoint x="685.1199999999999" y="280" as="targetPoint" />
            <mxPoint x="517.1199999999999" y="280" as="sourcePoint" />
          </mxGeometry>
        </mxCell>
        <mxCell id="9IzYRtWV6OqHCAsyrj7a-25" value="" style="verticalLabelPosition=bottom;verticalAlign=top;html=1;strokeWidth=1;shape=mxgraph.flowchart.on-page_reference;plain-blue;gradientColor=none;fillColor=#404040;strokeColor=#404040;" parent="1" vertex="1">
          <mxGeometry x="575" y="355" width="10" height="10" as="geometry" />
        </mxCell>
        <mxCell id="9IzYRtWV6OqHCAsyrj7a-37" style="edgeStyle=orthogonalEdgeStyle;curved=1;orthogonalLoop=1;jettySize=auto;html=1;entryX=0;entryY=0.5;entryDx=0;entryDy=0;entryPerimeter=0;endArrow=none;endFill=0;strokeWidth=4;fontFamily=Helvetica;strokeColor=#404040;" parent="1" source="9IzYRtWV6OqHCAsyrj7a-33" target="9IzYRtWV6OqHCAsyrj7a-35" edge="1">
          <mxGeometry relative="1" as="geometry">
            <Array as="points">
              <mxPoint x="1160" y="200" />
              <mxPoint x="1160" y="280" />
            </Array>
          </mxGeometry>
        </mxCell>
        <mxCell id="9IzYRtWV6OqHCAsyrj7a-33" value="" style="verticalLabelPosition=bottom;verticalAlign=top;html=1;strokeWidth=4;shape=mxgraph.flowchart.on-page_reference;plain-purple;gradientColor=none;fillColor=#FFD966;strokeColor=#404040;" parent="1" vertex="1">
          <mxGeometry x="1115" y="185" width="30" height="30" as="geometry" />
        </mxCell>
        <mxCell id="9IzYRtWV6OqHCAsyrj7a-35" value="" style="verticalLabelPosition=bottom;verticalAlign=top;html=1;strokeWidth=4;shape=mxgraph.flowchart.on-page_reference;plain-blue;gradientColor=none;fillColor=#69C0E0;strokeColor=#404040;" parent="1" vertex="1">
          <mxGeometry x="1220" y="265" width="30" height="30" as="geometry" />
        </mxCell>
        <mxCell id="9IzYRtWV6OqHCAsyrj7a-36" value="" style="edgeStyle=orthogonalEdgeStyle;curved=1;rounded=0;orthogonalLoop=1;jettySize=auto;html=1;endArrow=none;endFill=0;strokeWidth=4;strokeColor=#404040;" parent="1" source="uWUnNED6HEl2aK5fdaIb-11" target="9IzYRtWV6OqHCAsyrj7a-35" edge="1">
          <mxGeometry relative="1" as="geometry">
            <mxPoint x="1446.5" y="280" as="targetPoint" />
            <mxPoint x="1141.5" y="280" as="sourcePoint" />
          </mxGeometry>
        </mxCell>
        <mxCell id="9IzYRtWV6OqHCAsyrj7a-38" value="2.1.0" style="text;html=1;align=center;verticalAlign=middle;whiteSpace=wrap;overflow=hidden;fontSize=14;fontFamily=Roboto;rounded=1;fontColor=#404040;strokeColor=#404040;strokeWidth=2;fillColor=#E6E6E6;" parent="1" vertex="1">
          <mxGeometry x="1070" y="304" width="63" height="22" as="geometry" />
        </mxCell>
        <mxCell id="L9tT5u5rNDzpHPTkdOCP-4" value="major_feature" style="text;html=1;align=center;verticalAlign=middle;whiteSpace=wrap;rounded=0;strokeWidth=2;fontSize=14;fontFamily=Roboto;shadow=0;sketch=0;glass=0;strokeColor=#404040;fontColor=#404040;fillColor=#FFAD5C;" parent="1" vertex="1">
          <mxGeometry x="80" y="101.5" width="160" height="39" as="geometry" />
        </mxCell>
        <mxCell id="L9tT5u5rNDzpHPTkdOCP-5" value="minor_feature" style="text;html=1;align=center;verticalAlign=middle;whiteSpace=wrap;rounded=0;strokeWidth=2;fontSize=14;fontFamily=Roboto;fillColor=#FFD966;strokeColor=#404040;fontColor=#404040;" parent="1" vertex="1">
          <mxGeometry x="80" y="181.5" width="160" height="39" as="geometry" />
        </mxCell>
        <mxCell id="L9tT5u5rNDzpHPTkdOCP-6" value="master" style="text;html=1;align=center;verticalAlign=middle;whiteSpace=wrap;rounded=0;strokeWidth=2;fontSize=15;fontFamily=Roboto;fontStyle=1;strokeColor=#404040;fontColor=#404040;fillColor=#69C0E0;" parent="1" vertex="1">
          <mxGeometry x="80" y="260.5" width="160" height="39" as="geometry" />
        </mxCell>
        <mxCell id="L9tT5u5rNDzpHPTkdOCP-7" value="support" style="text;html=1;align=center;verticalAlign=middle;whiteSpace=wrap;rounded=0;strokeWidth=2;fontSize=15;fontFamily=Roboto;fontStyle=1;fillColor=#97D077;strokeColor=#404040;fontColor=#404040;" parent="1" vertex="1">
          <mxGeometry x="80" y="340.5" width="160" height="39" as="geometry" />
        </mxCell>
        <mxCell id="L9tT5u5rNDzpHPTkdOCP-8" value="bugfix" style="text;html=1;align=center;verticalAlign=middle;whiteSpace=wrap;rounded=0;strokeWidth=2;fontSize=14;fontFamily=Roboto;fontStyle=0;strokeColor=#404040;fontColor=#404040;fillColor=#FF8585;" parent="1" vertex="1">
          <mxGeometry x="80" y="420.5" width="160" height="39" as="geometry" />
        </mxCell>
        <mxCell id="9IzYRtWV6OqHCAsyrj7a-32" style="edgeStyle=orthogonalEdgeStyle;curved=1;orthogonalLoop=1;jettySize=auto;html=1;endArrow=none;endFill=0;strokeWidth=4;strokeColor=#404040;" parent="1" source="uWUnNED6HEl2aK5fdaIb-82" edge="1">
          <mxGeometry x="575" y="340.5" as="geometry">
            <mxPoint x="860" y="280" as="targetPoint" />
          </mxGeometry>
        </mxCell>
        <mxCell id="uWUnNED6HEl2aK5fdaIb-82" value="" style="verticalLabelPosition=bottom;verticalAlign=top;html=1;strokeWidth=4;shape=mxgraph.flowchart.on-page_reference;plain-purple;gradientColor=none;fillColor=#97D077;strokeColor=#404040;" parent="1" vertex="1">
          <mxGeometry x="804.99" y="340.5" width="30" height="30" as="geometry" />
        </mxCell>
        <mxCell id="9IzYRtWV6OqHCAsyrj7a-10" value="" style="verticalLabelPosition=bottom;verticalAlign=top;html=1;strokeWidth=4;shape=mxgraph.flowchart.on-page_reference;plain-purple;gradientColor=none;fillColor=#FF8585;strokeColor=#404040;" parent="1" vertex="1">
          <mxGeometry x="645" y="420.5" width="30" height="30" as="geometry" />
        </mxCell>
        <mxCell id="9IzYRtWV6OqHCAsyrj7a-14" style="edgeStyle=orthogonalEdgeStyle;orthogonalLoop=1;jettySize=auto;html=1;entryX=0;entryY=0.5;entryDx=0;entryDy=0;entryPerimeter=0;endArrow=none;endFill=0;strokeWidth=4;curved=1;strokeColor=#404040;" parent="1" source="9IzYRtWV6OqHCAsyrj7a-12" target="uWUnNED6HEl2aK5fdaIb-82" edge="1">
          <mxGeometry x="575" y="340.5" as="geometry" />
        </mxCell>
        <mxCell id="9IzYRtWV6OqHCAsyrj7a-12" value="" style="verticalLabelPosition=bottom;verticalAlign=top;html=1;strokeWidth=4;shape=mxgraph.flowchart.on-page_reference;plain-purple;gradientColor=none;fillColor=#FF8585;strokeColor=#404040;" parent="1" vertex="1">
          <mxGeometry x="725" y="420.5" width="30" height="30" as="geometry" />
        </mxCell>
        <mxCell id="9IzYRtWV6OqHCAsyrj7a-13" style="edgeStyle=orthogonalEdgeStyle;curved=1;orthogonalLoop=1;jettySize=auto;html=1;entryX=0;entryY=0.5;entryDx=0;entryDy=0;entryPerimeter=0;endArrow=none;endFill=0;strokeWidth=4;strokeColor=#404040;" parent="1" source="9IzYRtWV6OqHCAsyrj7a-10" target="9IzYRtWV6OqHCAsyrj7a-12" edge="1">
          <mxGeometry x="575" y="340.5" as="geometry" />
        </mxCell>
        <mxCell id="9IzYRtWV6OqHCAsyrj7a-15" value="1.1.1" style="text;html=1;align=center;verticalAlign=middle;whiteSpace=wrap;overflow=hidden;fontSize=14;fontFamily=Roboto;rounded=1;fontColor=#404040;strokeColor=#404040;strokeWidth=2;fillColor=#E6E6E6;" parent="1" vertex="1">
          <mxGeometry x="788.49" y="380" width="63" height="22" as="geometry" />
        </mxCell>
        <mxCell id="9IzYRtWV6OqHCAsyrj7a-29" style="edgeStyle=orthogonalEdgeStyle;orthogonalLoop=1;jettySize=auto;html=1;entryX=0;entryY=0.5;entryDx=0;entryDy=0;entryPerimeter=0;endArrow=none;endFill=0;strokeWidth=4;curved=1;strokeColor=#404040;" parent="1" source="9IzYRtWV6OqHCAsyrj7a-28" target="9IzYRtWV6OqHCAsyrj7a-10" edge="1">
          <mxGeometry x="575" y="340.5" as="geometry">
            <Array as="points">
              <mxPoint x="620" y="355.5" />
              <mxPoint x="620" y="435.5" />
            </Array>
          </mxGeometry>
        </mxCell>
        <mxCell id="9IzYRtWV6OqHCAsyrj7a-31" style="edgeStyle=orthogonalEdgeStyle;rounded=1;orthogonalLoop=1;jettySize=auto;html=1;entryX=0;entryY=0.5;entryDx=0;entryDy=0;entryPerimeter=0;endArrow=none;endFill=0;strokeWidth=4;strokeColor=#404040;" parent="1" source="9IzYRtWV6OqHCAsyrj7a-28" target="uWUnNED6HEl2aK5fdaIb-82" edge="1">
          <mxGeometry x="575" y="340.5" as="geometry" />
        </mxCell>
        <mxCell id="9IzYRtWV6OqHCAsyrj7a-28" value="" style="verticalLabelPosition=bottom;verticalAlign=top;html=1;strokeWidth=1;shape=mxgraph.flowchart.on-page_reference;plain-blue;gradientColor=none;fillColor=#404040;strokeColor=#404040;" parent="1" vertex="1">
          <mxGeometry x="575" y="350.5" width="10" height="10" as="geometry" />
        </mxCell>
      </root>
    </mxGraphModel>
  </diagram>
</mxfile>
